<svg width="176" height="40" viewBox="0 0 176 40" fill="none" xmlns="http://www.w3.org/2000/svg">
<g clip-path="url(#clip0_1_78)">
<path d="M52.2699 5.99001V24.14H49.9999V15.36H41.3699V24.15H39.1199V7.06001H37.1599V5.99001H41.3699V14.29H49.9999V5.99001H52.2699Z" fill="black"/>
<path d="M70.9799 5.99V6.28C69.7599 9.24 67.2099 14.77 66.5199 16.21C65.5699 18.19 65.6499 19.62 65.6499 22.26V24.16H63.3799V22.26C63.3799 19.5 63.1299 18.11 62.1699 16.21C61.4099 14.66 59.3599 10.17 58.1099 7.07H56.1799V5.99H60.1599C60.3399 6.4 60.5399 6.83 60.6799 7.17C61.8399 9.98 63.3799 13.56 64.1699 15.24C64.4099 15.76 64.6199 16.3 64.7699 16.72C65.0099 16.11 65.3599 15.35 65.6599 14.72C66.4899 13.05 68.3699 8.73 69.4399 5.98H70.9799V5.99Z" fill="black"/>
<path d="M88.65 11.22C88.65 15.11 86.84 16.28 82.84 16.57C79.75 16.8 79.16 17.12 79.16 20.55V24.13H76.86V7.07001H75.08V5.99001H82.13C85.99 5.99001 88.65 7.72001 88.65 11.22ZM86.3 11.22C86.3 8.86001 85.36 7.06001 82.46 7.06001H79.15V16.25C79.84 15.79 80.96 15.64 83.07 15.4C85.88 15.11 86.3 14.05 86.3 11.22Z" fill="black"/>
<path d="M93.3499 15.08C93.3499 9.61 96.6699 5.7 101.05 5.7C104.88 5.7 106.92 7.72 106.92 10.7C106.92 13.51 105.32 14.6 101.93 15.4L97.8099 16.38C96.6799 16.65 96.0699 17.07 96.0799 18.09C96.1199 21.3 97.9099 23.33 100.76 23.33C103.08 23.33 104.81 22.65 106.78 21.58V22.95C105 23.97 103.27 24.45 100.76 24.45C95.7099 24.46 93.3499 20.97 93.3499 15.08ZM97.6499 15.23L101.33 14.24C103.57 13.64 104.36 12.53 104.36 10.23C104.36 8.04 103.37 6.85 101.33 6.85C98.2199 6.85 95.8999 10.03 95.8999 15.13C95.8999 15.4 95.8999 15.66 95.9099 15.92C96.3499 15.56 96.9299 15.42 97.6499 15.23Z" fill="black"/>
<path d="M126.43 23.08V24.02C126.23 24.1 125.45 24.25 124.86 24.25C123.41 24.25 122.86 23.88 121.44 21.68C120.18 19.78 118.93 17.84 117.81 16.57C116.03 16.92 115.61 17.75 115.61 20.54V24.16H113.31V7.07001H111.33V5.99001H118.6C122.44 5.99001 125.09 7.70001 125.09 11.2C125.09 14.38 123.51 15.81 120.31 16.27C121.35 17.55 122.42 19.06 123.51 20.78C123.51 20.78 124.08 21.79 124.67 22.48C125.09 22.95 125.42 23.09 125.78 23.09L126.43 23.08ZM119.57 15.2C122.52 14.87 122.76 13.55 122.76 11.2C122.76 8.84001 121.84 7.07001 118.93 7.07001H115.62V16.22C116.31 15.69 117.44 15.44 119.57 15.2Z" fill="black"/>
<path d="M134.64 24.15H132.36V7.07001H130.35V5.99001H134.64V24.15Z" fill="black"/>
<path d="M140.64 15.1C140.64 9.32001 143.24 5.71001 148.38 5.71001C153.5 5.71001 156.1 9.31001 156.1 15.1C156.1 20.86 153.5 24.46 148.38 24.46C143.24 24.46 140.64 20.86 140.64 15.1ZM153.57 15.1C153.57 10.12 152.3 6.84001 148.38 6.84001C144.44 6.84001 143.19 10.11 143.19 15.1C143.19 20.07 144.41 23.34 148.38 23.34C152.35 23.34 153.57 20.07 153.57 15.1Z" fill="black"/>
<path d="M175.36 13.48V24.15H173.09V13.91C173.09 10.55 172.99 10.14 172.74 9.29C172.32 7.75 171.29 6.83 169.61 6.83C166.36 6.83 164.49 9.19 164.49 14.17V24.14H162.19V7.06H160.22V5.99H164.42L164.43 8.53C165.6 6.68 167.47 5.69 169.66 5.69C171.86 5.69 173.88 6.8 174.77 8.78C175.22 9.89 175.36 11.12 175.36 13.48Z" fill="black"/>
<path d="M24.1456 27.2497C30.8453 22.2653 32.2357 12.7935 27.2513 6.09383C22.2668 -0.605817 12.795 -1.99626 6.09538 2.98818C-0.604268 7.97262 -1.99471 17.4444 2.98973 24.1441C7.97417 30.8437 17.446 32.2342 24.1456 27.2497Z" fill="black"/>
<path d="M2.42993 20.37L6.67993 22.46V18.61L3.95993 15.89L2.42993 20.37Z" fill="#D0D0D0"/>
<path d="M21.1899 28.03C24.1899 26.62 26.6199 24.19 28.0299 21.19L23.4399 23.45L21.1899 28.03Z" fill="#A8A8A7"/>
<path d="M10.28 28.54C11.79 29.09 13.42 29.4 15.12 29.4C16.82 29.4 18.45 29.09 19.96 28.54L15.12 26.89L10.28 28.54Z" fill="#D0D0D0"/>
<path d="M3.95993 14.35L6.67993 11.63V7.77L2.42993 9.86L3.95993 14.35Z" fill="#706F6F"/>
<path d="M17.43 6.69L15.12 4.37L12.8 6.69H17.43Z" fill="#A8A8A7"/>
<path d="M22.4699 6.68999L20.3699 2.42999L15.8899 3.95999L18.6099 6.68999H22.4699Z" fill="#706F6F"/>
<path d="M19.96 1.69C18.45 1.14 16.82 0.830002 15.12 0.830002C13.42 0.830002 11.79 1.14 10.28 1.69L15.12 3.34L19.96 1.69Z" fill="#A8A8A7"/>
<path d="M28.0299 9.04999C26.6199 6.04999 24.1899 3.61999 21.1899 2.20999L23.4399 6.79999L28.0299 9.04999Z" fill="#A8A8A7"/>
<path d="M28.5499 19.96C29.0999 18.45 29.4099 16.82 29.4099 15.12C29.4099 13.42 29.0999 11.79 28.5499 10.28L26.8999 15.12L28.5499 19.96Z" fill="#D0D0D0"/>
<path d="M2.19995 21.19C3.60995 24.2 6.03995 26.62 9.03995 28.03L6.78995 23.44L2.19995 21.19Z" fill="#D0D0D0"/>
<path d="M14.35 3.95999L9.86002 2.42999L7.77002 6.68999H11.63L14.35 3.95999Z" fill="#D0D0D0"/>
<path d="M1.69008 10.28C1.14008 11.79 0.830078 13.42 0.830078 15.12C0.830078 16.82 1.14008 18.45 1.69008 19.96L3.34008 15.12L1.69008 10.28Z" fill="#A8A8A7"/>
<path d="M9.03995 2.2C6.03995 3.62 3.60995 6.04 2.19995 9.04L6.78995 6.79L9.03995 2.2Z" fill="#D0D0D0"/>
<path d="M6.68012 17.43V12.8L4.37012 15.12L6.68012 17.43Z" fill="#A8A8A7"/>
<path d="M22.7199 10.79V7.52H19.4399L22.7199 10.79Z" fill="#D0D0D0"/>
<path d="M11.97 7.52L7.52002 11.97V18.27L11.97 22.72H18.27L22.72 18.27V11.97L18.27 7.52H11.97Z" fill="#D0D0D0"/>
<path d="M27.81 9.86L23.55 7.77V11.63L26.2801 14.35L27.81 9.86Z" fill="#A8A8A7"/>
<path d="M23.55 12.8V17.43L25.8701 15.12L23.55 12.8Z" fill="#706F6F"/>
<path d="M26.2801 15.89L23.55 18.61V22.47L27.81 20.37L26.2801 15.89Z" fill="#D0D0D0"/>
<path d="M7.52002 7.52V10.79L10.79 7.52H7.52002Z" fill="#D0D0D0"/>
<path d="M7.77002 23.55L9.86002 27.81L14.35 26.27L11.62 23.55H7.77002Z" fill="#A8A8A7"/>
<path d="M7.52002 19.45V22.72H10.79L7.52002 19.45Z" fill="#706F6F"/>
<path d="M15.8899 26.27L20.3699 27.81L22.4699 23.55H18.6099L15.8899 26.27Z" fill="#706F6F"/>
<path d="M22.7199 22.72V19.45L19.4399 22.72H22.7199Z" fill="#A8A8A7"/>
<path d="M12.8 23.55L15.12 25.86L17.43 23.55H12.8Z" fill="#D0D0D0"/>
<path d="M43.1901 36.53H39.7601V39.69H39.0901V32.93H39.7601V35.91H43.1901V32.93H43.8601V39.69H43.1901V36.53Z" fill="black"/>
<path d="M47.3901 39.79C46.0301 39.79 45.2701 38.76 45.2701 37.22C45.2701 35.67 46.0301 34.65 47.3901 34.65C48.7401 34.65 49.5101 35.68 49.5101 37.22C49.5101 38.77 48.7401 39.79 47.3901 39.79ZM47.3901 35.24C46.3601 35.24 45.9401 36.04 45.9401 37.22C45.9401 38.4 46.3701 39.2 47.3901 39.2C48.4101 39.2 48.8401 38.4 48.8401 37.22C48.8401 36.04 48.4101 35.24 47.3901 35.24Z" fill="black"/>
<path d="M51.26 35.3H50.55V34.75H51.26V33.51C51.34 33.47 51.61 33.37 51.91 33.34V34.75H53.18V35.3H51.91V38.06C51.91 38.91 52.06 39.14 52.67 39.14C52.96 39.14 53.2301 39.03 53.3301 38.99V39.64C53.2101 39.68 52.9401 39.75 52.6301 39.75C51.6401 39.75 51.26 39.34 51.26 38.07V35.3Z" fill="black"/>
<path d="M55.6401 37.72C55.2901 37.81 55.1301 37.99 55.1301 38.28C55.1301 38.57 55.5001 39.2 56.4001 39.2C57.0401 39.2 57.6401 39.02 58.1401 38.76V39.38C57.6801 39.63 57.1101 39.79 56.4001 39.79C54.9901 39.79 54.2601 38.76 54.2601 37.22C54.2601 35.69 55.2301 34.65 56.4901 34.65C57.6901 34.65 58.1801 35.23 58.1801 36C58.1801 36.81 57.6701 37.22 56.7201 37.45L55.6401 37.72ZM54.9301 37.44C55.0701 37.31 55.2701 37.21 55.5001 37.15L56.5101 36.88C57.1701 36.71 57.4901 36.46 57.4901 36.06C57.4901 35.54 57.1701 35.24 56.4901 35.24C55.5401 35.24 54.9301 36.05 54.9301 37.35V37.44Z" fill="black"/>
<path d="M59.5901 32.68H60.2401V38.2C60.2401 38.86 60.3201 39.08 60.7801 39.08H60.9501V39.69C60.8501 39.71 60.7201 39.72 60.6201 39.72C59.8501 39.72 59.5801 39.32 59.5801 38.2V32.68H59.5901Z" fill="black"/>
<path d="M67.2001 36.81V36.19H69.2501V38.3C69.2501 38.94 69.1601 39.18 68.6701 39.46C68.2801 39.67 67.7801 39.79 67.1701 39.79C65.1401 39.79 64.3101 38.59 64.3101 36.31C64.3101 34.05 65.2201 32.83 67.1601 32.83C68.1301 32.83 68.6901 33.02 69.0201 33.16V33.81C68.6301 33.66 68.0501 33.45 67.1601 33.45C65.5001 33.45 65.0101 34.6 65.0101 36.32C65.0101 38.05 65.4401 39.18 67.1801 39.18C67.4801 39.18 67.7701 39.16 68.0801 39.07C68.4201 38.97 68.5901 38.84 68.5901 38.38V36.81H67.2001Z" fill="black"/>
<path d="M74.0801 39.69H73.5101C73.4701 39.5 73.4501 39.32 73.4501 39.09C72.8901 39.69 72.3601 39.78 71.7801 39.78C70.9901 39.78 70.3801 39.23 70.3801 38.45C70.3801 37.81 70.6501 37.15 71.8101 36.84L72.6701 36.61C73.2301 36.46 73.4301 36.24 73.4301 35.91C73.4301 35.51 73.1401 35.23 72.4201 35.23C71.8801 35.23 71.2401 35.39 70.7701 35.57V34.96C71.2201 34.75 71.8901 34.64 72.3501 34.64C73.4701 34.64 74.0701 35 74.0701 36.08V39.69H74.0801ZM73.4401 36.87C73.3001 36.99 73.0801 37.1 72.8101 37.18L72.0001 37.41C71.1301 37.66 71.0501 38.07 71.0501 38.42C71.0501 38.9 71.4101 39.18 71.9101 39.18C72.9501 39.18 73.4401 38.66 73.4401 37.92V36.87Z" fill="black"/>
<path d="M75.8601 34.75H76.4301C76.4701 34.94 76.4801 35.17 76.4801 35.4C76.8101 34.9 77.2401 34.65 77.7501 34.65C77.9401 34.65 78.1001 34.67 78.1801 34.69V35.4C78.0101 35.34 77.8601 35.31 77.6901 35.31C76.8801 35.31 76.5201 35.76 76.5201 36.7V39.68H75.8701V34.75H75.8601Z" fill="black"/>
<path d="M83.1101 35.65C83.4201 35.01 83.9001 34.64 84.8301 34.64C85.2401 34.64 85.8701 34.82 86.1801 35.49C86.3201 35.78 86.3501 36.14 86.3501 36.78V39.68H85.7001V37.12C85.7001 36.21 85.6901 36.14 85.6301 35.94C85.5101 35.55 85.1901 35.29 84.6901 35.29C83.6801 35.29 83.2201 35.97 83.2201 37.19V39.69H82.5701V37.13C82.5701 36.22 82.5601 36.15 82.5001 35.95C82.3801 35.56 82.0601 35.3 81.5601 35.3C80.5501 35.3 80.0901 35.98 80.0901 37.2V39.7H79.4401V34.76H80.0101C80.0501 34.95 80.0701 35.35 80.0701 35.58C80.3401 35.06 80.8001 34.65 81.6701 34.65C82.2001 34.64 82.8301 34.84 83.1101 35.65Z" fill="black"/>
<path d="M88.44 32.75C88.73 32.75 88.97 32.99 88.97 33.28C88.97 33.57 88.73 33.81 88.44 33.81C88.15 33.81 87.91 33.57 87.91 33.28C87.91 32.99 88.15 32.75 88.44 32.75ZM88.12 34.75H88.77V39.69H88.12V34.75Z" fill="black"/>
<path d="M93.4701 34.97V35.61C93.1701 35.45 92.6301 35.21 92.0101 35.21C91.4201 35.21 91.0701 35.49 91.0701 35.94C91.0701 36.37 91.2501 36.55 92.0101 36.8L92.5701 36.98C93.3101 37.23 93.6601 37.63 93.6601 38.3C93.6601 39.27 93.0001 39.79 91.7501 39.79C91.1701 39.79 90.8101 39.66 90.3901 39.47V38.85C90.6801 39 91.2101 39.22 91.7701 39.22C92.5601 39.22 92.9901 38.95 92.9901 38.43C92.9901 38.01 92.7801 37.8 92.1001 37.57L91.5501 37.38C90.8301 37.13 90.4001 36.8 90.4001 36.01C90.4001 35.31 90.9201 34.66 92.0901 34.66C92.6601 34.64 93.1601 34.8 93.4701 34.97Z" fill="black"/>
<path d="M97.8801 39.6C97.4701 39.75 97.1601 39.79 96.7601 39.79C95.4201 39.79 94.6401 38.8 94.6401 37.22C94.6401 35.64 95.4201 34.65 96.7601 34.65C97.1701 34.65 97.4801 34.69 97.8801 34.84V35.46C97.4701 35.31 97.2201 35.24 96.7601 35.24C95.7301 35.24 95.3101 36.04 95.3101 37.22C95.3101 38.4 95.7401 39.2 96.7601 39.2C97.2201 39.2 97.4801 39.13 97.8801 38.98V39.6Z" fill="black"/>
<path d="M102.45 37.12C102.45 36.27 102.42 36.16 102.35 35.94C102.23 35.56 101.93 35.29 101.42 35.29C100.51 35.29 99.94 35.86 99.94 37.19V39.69H99.3V32.68H99.95V35.6C100.22 35.01 100.73 34.64 101.59 34.64C102 34.64 102.64 34.82 102.94 35.48C103.08 35.78 103.11 36.14 103.11 36.78V39.68H102.46V37.12H102.45Z" fill="black"/>
<path d="M104.32 37.03V36.41H106.7V37.03H104.32Z" fill="black"/>
<path d="M108.02 32.98C108.45 32.9 109.31 32.86 109.91 32.86C111.21 32.86 112.26 33.49 112.26 34.86C112.26 36.38 111.43 37.03 110.09 37.12C108.72 37.23 108.69 37.25 108.69 38.62V39.68H108.02V32.98ZM108.69 36.84C108.94 36.7 109.11 36.61 110.17 36.49C111.21 36.37 111.56 35.93 111.56 34.86C111.56 34.09 111.1 33.48 109.84 33.48C109.45 33.48 109.06 33.5 108.69 33.56V36.84Z" fill="black"/>
<path d="M116.94 39.69H116.37C116.33 39.5 116.31 39.32 116.31 39.09C115.75 39.69 115.22 39.78 114.64 39.78C113.85 39.78 113.24 39.23 113.24 38.45C113.24 37.81 113.51 37.15 114.67 36.84L115.53 36.61C116.09 36.46 116.29 36.24 116.29 35.91C116.29 35.51 116 35.23 115.28 35.23C114.74 35.23 114.1 35.39 113.63 35.57V34.96C114.08 34.75 114.75 34.64 115.21 34.64C116.33 34.64 116.93 35 116.93 36.08V39.69H116.94ZM116.29 36.87C116.15 36.99 115.93 37.1 115.66 37.18L114.85 37.41C113.98 37.66 113.9 38.07 113.9 38.42C113.9 38.9 114.26 39.18 114.76 39.18C115.8 39.18 116.29 38.66 116.29 37.92V36.87Z" fill="black"/>
<path d="M118.56 34.75H119.13C119.17 34.94 119.18 35.17 119.18 35.4C119.51 34.9 119.94 34.65 120.45 34.65C120.64 34.65 120.8 34.67 120.88 34.69V35.4C120.71 35.34 120.56 35.31 120.39 35.31C119.58 35.31 119.22 35.76 119.22 36.7V39.68H118.57V34.75H118.56Z" fill="black"/>
<path d="M122.16 35.3H121.45V34.75H122.16V33.51C122.24 33.47 122.51 33.37 122.81 33.34V34.75H124.08V35.3H122.81V38.06C122.81 38.91 122.96 39.14 123.57 39.14C123.86 39.14 124.13 39.03 124.23 38.99V39.64C124.11 39.68 123.84 39.75 123.53 39.75C122.54 39.75 122.16 39.34 122.16 38.07V35.3Z" fill="black"/>
<path d="M126.45 37.72C126.1 37.81 125.94 37.99 125.94 38.28C125.94 38.57 126.31 39.2 127.21 39.2C127.85 39.2 128.45 39.02 128.95 38.76V39.38C128.49 39.63 127.92 39.79 127.21 39.79C125.8 39.79 125.07 38.76 125.07 37.22C125.07 35.69 126.04 34.65 127.3 34.65C128.5 34.65 128.99 35.23 128.99 36C128.99 36.81 128.48 37.22 127.53 37.45L126.45 37.72ZM125.73 37.44C125.87 37.31 126.07 37.21 126.3 37.15L127.31 36.88C127.97 36.71 128.29 36.46 128.29 36.06C128.29 35.54 127.97 35.24 127.29 35.24C126.34 35.24 125.73 36.05 125.73 37.35V37.44Z" fill="black"/>
<path d="M134.01 35.49C134.15 35.79 134.18 36.15 134.18 36.79V39.69H133.53V37.13C133.53 36.28 133.5 36.17 133.43 35.95C133.31 35.57 133.01 35.3 132.5 35.3C131.59 35.3 131.02 35.87 131.02 37.2V39.7H130.37V34.76H130.94C130.98 34.95 131 35.35 131 35.58C131.27 35.04 131.8 34.65 132.65 34.65C133.07 34.64 133.71 34.83 134.01 35.49Z" fill="black"/>
<path d="M135.81 32.68H136.46V35.76C136.76 35.05 137.32 34.65 138.08 34.65C139.05 34.65 139.57 35.09 139.57 35.9C139.57 36.71 139.05 37.15 138.18 37.42C138.63 37.84 139.48 39 139.9 39.69H139.09C138.7 39.03 138.09 38.21 137.51 37.57L137.15 37.67C136.49 37.84 136.46 38.61 136.46 39.27V39.7H135.81V32.68ZM136.46 37.41C136.58 37.26 136.81 37.15 137.04 37.09L137.89 36.87C138.54 36.71 138.9 36.37 138.9 35.96C138.9 35.53 138.58 35.23 138.08 35.23C137.25 35.23 136.46 36.02 136.46 37.3V37.41Z" fill="black"/>
<path d="M141.32 32.75C141.61 32.75 141.85 32.99 141.85 33.28C141.85 33.57 141.61 33.81 141.32 33.81C141.03 33.81 140.79 33.57 140.79 33.28C140.79 32.99 141.03 32.75 141.32 32.75ZM141 34.75H141.65V39.69H141V34.75Z" fill="black"/>
<path d="M143.31 34.75H143.88C143.92 34.94 143.93 35.17 143.93 35.4C144.26 34.9 144.69 34.65 145.2 34.65C145.39 34.65 145.55 34.67 145.63 34.69V35.4C145.46 35.34 145.31 35.31 145.14 35.31C144.33 35.31 143.97 35.76 143.97 36.7V39.68H143.32V34.75H143.31Z" fill="black"/>
<path d="M149.49 39.6C149.08 39.75 148.77 39.79 148.37 39.79C147.03 39.79 146.25 38.8 146.25 37.22C146.25 35.64 147.03 34.65 148.37 34.65C148.78 34.65 149.09 34.69 149.49 34.84V35.46C149.08 35.31 148.83 35.24 148.37 35.24C147.34 35.24 146.92 36.04 146.92 37.22C146.92 38.4 147.35 39.2 148.37 39.2C148.83 39.2 149.09 39.13 149.49 38.98V39.6Z" fill="black"/>
<path d="M153.92 37.12C153.92 36.27 153.89 36.16 153.82 35.94C153.7 35.56 153.4 35.29 152.89 35.29C151.98 35.29 151.41 35.86 151.41 37.19V39.69H150.76V32.68H151.41V35.6C151.68 35.01 152.19 34.64 153.05 34.64C153.46 34.64 154.1 34.82 154.4 35.48C154.54 35.78 154.57 36.14 154.57 36.78V39.68H153.92V37.12Z" fill="black"/>
<path d="M157.27 37.72C156.92 37.81 156.76 37.99 156.76 38.28C156.76 38.57 157.13 39.2 158.03 39.2C158.67 39.2 159.27 39.02 159.77 38.76V39.38C159.31 39.63 158.74 39.79 158.03 39.79C156.62 39.79 155.89 38.76 155.89 37.22C155.89 35.69 156.86 34.65 158.12 34.65C159.32 34.65 159.81 35.23 159.81 36C159.81 36.81 159.3 37.22 158.35 37.45L157.27 37.72ZM156.55 37.44C156.69 37.31 156.89 37.21 157.12 37.15L158.13 36.88C158.79 36.71 159.11 36.46 159.11 36.06C159.11 35.54 158.79 35.24 158.11 35.24C157.16 35.24 156.55 36.05 156.55 37.35V37.44Z" fill="black"/>
<path d="M164.83 35.49C164.97 35.79 165 36.15 165 36.79V39.69H164.35V37.13C164.35 36.28 164.32 36.17 164.25 35.95C164.13 35.57 163.83 35.3 163.32 35.3C162.41 35.3 161.84 35.87 161.84 37.2V39.7H161.19V34.76H161.76C161.8 34.95 161.82 35.35 161.82 35.58C162.09 35.04 162.62 34.65 163.47 34.65C163.89 34.64 164.53 34.83 164.83 35.49Z" fill="black"/>
</g>
<defs>
<clipPath id="clip0_1_78">
<rect width="175.36" height="40" fill="white"/>
</clipPath>
</defs>
</svg>
