<svg width="86" height="82" viewBox="0 0 86 82" fill="none" xmlns="http://www.w3.org/2000/svg">
<path d="M86 0.811881L84.0168 15.7866C79.0888 15.4258 75.3627 16.388 72.8386 18.6733C70.3145 20.9586 68.6918 24.0858 67.9706 28.055C67.2495 32.0242 67.0692 36.4144 67.4298 41.2255H86V82H50.6625V35.813C50.6625 23.1837 53.7275 13.6817 59.8574 7.30693C66.1076 0.811882 74.8218 -1.35314 86 0.811881ZM35.3375 0.811881L33.3543 15.7866C28.4263 15.4258 24.7002 16.388 22.1761 18.6733C19.652 20.9586 18.0294 24.0858 17.3082 28.055C16.587 32.0242 16.4067 36.4144 16.7673 41.2255H35.3375V82H0V35.813C0 23.1837 3.06499 13.6817 9.19497 7.30693C15.4451 0.811882 24.1593 -1.35314 35.3375 0.811881Z" fill="#CCDBDC"/>
</svg>
